<svg fill="none" xmlns="http://www.w3.org/2000/svg"><path d="M8.898 24c5.415 0 9.09-3.837 9.09-9.17V12h-4.706v2.83c0 2.796-1.709 4.617-4.384 4.617-2.515 0-3.966-1.593-4.224-3.837H0C.258 20.52 3.772 24 8.898 24zm4.384-14.992h4.707V0H8.8v4.488h4.48v4.52zm17.505 14.537h4.19c-.321-1.366-.547-3.61-.547-5.171v-5.236c0-4.032-2.482-6.504-6.867-6.504-4.739 0-6.802 3.025-7.124 5.431h4.19c.258-1.073 1.193-1.756 2.805-1.756 1.58 0 2.611.813 2.611 2.439v.683l-4.062.195c-4.287.228-6.028 2.406-6.028 5.333 0 3.155 2.225 5.041 5.61 5.041 2.514 0 4.126-1.236 4.932-2.244.064.683.193 1.333.29 1.789zm-.741-5.952c0 2.18-1.838 2.895-3.321 2.895-1.515 0-2.353-.586-2.353-1.821 0-1.074.677-1.854 2.514-1.952l3.16-.162v1.04zM44.971 24c2.224 0 4.513-.78 5.9-2.049l-1.613-3.414c-1.225.78-2.804 1.3-4.03 1.3-2.514 0-4.126-1.723-4.126-4.52 0-2.7 1.58-4.52 4.352-4.52 1.16 0 2.515.52 3.643 1.268L50.87 8.52c-1.418-1.235-3.353-1.886-5.513-1.886-5.577 0-8.833 4-8.833 8.683 0 5.333 3.224 8.683 8.447 8.683zm14.636 0c5.029 0 8.607-3.35 8.607-8.683s-3.417-8.683-8.446-8.683c-4.933 0-8.447 3.642-8.447 8.683 0 5.17 3.353 8.683 8.285 8.683zm.16-4.065c-2.353 0-3.868-1.724-3.868-4.618S57.415 10.7 59.77 10.7c2.353 0 3.868 1.724 3.868 4.618s-1.515 4.618-3.868 4.618zM79.564 24c3.9 0 7.382-3.187 7.382-8.683 0-5.333-3.16-8.683-7.221-8.683-2.192 0-3.869.943-4.9 2.504V0h-4.45v18.96c0 1.56-.064 2.926-.193 4.585h4.191c.065-.65.13-1.334.162-2.082C75.725 23.154 77.564 24 79.563 24zM78.5 19.935c-2.354 0-3.869-1.724-3.869-4.618S76.145 10.7 78.5 10.7c2.353 0 3.868 1.724 3.868 4.618s-1.515 4.618-3.868 4.618zM94.779 24c4.255 0 7.221-2.211 7.221-5.43 0-2.765-1.612-4.391-4.997-5.107l-2.127-.455c-1.064-.227-1.645-.715-1.645-1.333 0-.846.806-1.366 2.128-1.366 1.483 0 2.901.423 4.578 1.398l1.45-3.35c-1.515-1.105-3.578-1.723-5.867-1.723-4.158 0-6.866 2.146-6.866 5.496 0 2.667 1.58 4.228 4.932 4.91l1.966.423c1.322.293 1.774.683 1.774 1.464 0 .845-.935 1.333-2.612 1.333-1.386 0-3.417-.748-5.126-1.886l-1.418 3.382c1.45 1.366 3.965 2.212 6.609 2.244z" fill="#000"></path></svg>